{"title":"The.Zombie.King.2012 BRRip XViD juggs","uid":8414545,"size":744368711,"categoryP":"video","categoryS":"movies","magnet":"?xt=urn:btih:af5fbe51dda4bd0c265a297452727714f3839a00&amp;dn=The.Zombie.King.2012+BRRip+XViD+juggs&amp;tr=udp%3A%2F%2Ftracker.openbittorrent.com%3A80&amp;tr=udp%3A%2F%2Fopen.demonii.com%3A1337&amp;tr=udp%3A%2F%2Ftracker.coppersurfer.tk%3A6969&amp;tr=udp%3A%2F%2Fexodus.desync.com%3A6969","seeders":0,"leechers":4,"uploader":"juggs99","files":3,"time":1367000135,"description":"Source : RSG (Thanks)\n &lt;a href=&quot;\nhttp://www.imdb.com/title/tt2091455/&quot; rel=&quot;nofollow&quot; target=&quot;_NEW&quot;&gt;\nhttp://www.imdb.com/title/tt2091455/&lt;/a&gt;\n\n\nFormat                                   : AVI\nFormat/Info                              : Audio Video Interleave\nFile size                                : 698 MiB\nDuration                                 : 1h 36mn\nOverall bit rate                         : 1 014 Kbps\nWriting library                          : VirtualDub build 32842/release\n\nVideo\nID                                       : 0\nFormat                                   : MPEG-4 Visual\nFormat profile                           : Advanced Simple@L5\nFormat settings, BVOP                    : 2\nFormat settings, QPel                    : No\nFormat settings, GMC                     : No warppoints\nFormat settings, Matrix                  : Default (H.263)\nMuxing mode                              : Packed bitstream\nCodec ID                                 : XVID\nCodec ID/Hint                            : XviD\nDuration                                 : 1h 36mn\nBit rate                                 : 876 Kbps\nWidth                                    : 640 pixels\nHeight                                   : 272 pixels\nDisplay aspect ratio                     : 2.35:1\nFrame rate                               : 23.976 fps\nColor space                              : YUV\nChroma subsampling                       : 4:2:0\nBit depth                                : 8 bits\nScan type                                : Progressive\nCompression mode                         : Lossy\nBits/(Pixel*Frame)                       : 0.210\nStream size                              : 604 MiB (86%)\nWriting library                          : XviD 1.2.0.dev47 (UTC 2006-11-01)\n\nAudio\nID                                       : 1\nFormat                                   : MPEG Audio\nFormat version                           : Version 1\nFormat profile                           : Layer 3\nMode                                     : Joint stereo\nMode extension                           : MS Stereo\nCodec ID                                 : 55\nCodec ID/Hint                            : MP3\nDuration                                 : 1h 36mn\nBit rate mode                            : Constant\nBit rate                                 : 128 Kbps\nChannel(s)                               : 2 channels\nSampling rate                            : 44.1 KHz\nCompression mode                         : Lossy\nStream size                              : 88.2 MiB (13%)\nAlignment                                : Split accross interleaves\nInterleave, duration                     : 42 ms (1.00 video frame)\nInterleave, preload duration             : 500 ms\n\n &lt;a href=&quot;\nhttp://www.shotpix.com/images/61799169944136487871.png&quot; rel=&quot;nofollow&quot; target=&quot;_NEW&quot;&gt;\nhttp://www.shotpix.com/images/61799169944136487871.png&lt;/a&gt; &lt;a href=&quot;\nhttp://www.shotpix.com/images/09115111792466576905.png&quot; rel=&quot;nofollow&quot; target=&quot;_NEW&quot;&gt;\nhttp://www.shotpix.com/images/09115111792466576905.png&lt;/a&gt; &lt;a href=&quot;\nhttp://www.shotpix.com/images/48915906451514542003.png&quot; rel=&quot;nofollow&quot; target=&quot;_NEW&quot;&gt;\nhttp://www.shotpix.com/images/48915906451514542003.png&lt;/a&gt;","torrent":{"xt":"urn:btih:af5fbe51dda4bd0c265a297452727714f3839a00","amp;dn":"The.Zombie.King.2012+BRRip+XViD+juggs","amp;tr":["udp%3A%2F%2Ftracker.openbittorrent.com%3A80","udp%3A%2F%2Fopen.demonii.com%3A1337","udp%3A%2F%2Ftracker.coppersurfer.tk%3A6969","udp%3A%2F%2Fexodus.desync.com%3A6969"],"infoHash":"af5fbe51dda4bd0c265a297452727714f3839a00","infoHashBuffer":{"type":"Buffer","data":[175,95,190,81,221,164,189,12,38,90,41,116,82,114,119,20,243,131,154,0]},"announce":[],"urlList":[]}}